<svg t="1578298362924" class="icon" viewBox="0 0 1024 1024" version="1.1" xmlns="http://www.w3.org/2000/svg" p-id="1901" width="200" height="200"><path d="M233.8 521.1h589v250.6h-589zM788.4 354.1l-25.9-32.5c-1-1.1-2.3-1.7-3.7-1.7H298.3c-1.5 0-3 0.7-3.9 1.9l-97.6 122c-1 1.2-2.4 1.9-3.9 1.9h-67.5c-5.1 0-6.9 6.7-2.6 9.3l109 65.4c0.8 0.5 1.7 0.7 2.6 0.7h587.8c1.1 0 2.1-0.4 3-1l124.9-65.4c3.9-2.9 1.8-9-3-9h-83.3c-1.4 0-2.8-0.6-3.7-1.7l-16-20" fill="#FFF5C5" p-id="1902"></path><path d="M721.4 297.1H270.8c-12.2 0-22.1-9.9-22.1-22.1v-32.7c0-12.2 9.9-22.1 22.1-22.1h450.6c12.2 0 22.1 9.9 22.1 22.1V275c-0.1 12.2-10 22.1-22.1 22.1zM274.9 271h442.4v-24.5H274.9V271zM860.4 803.7h-716c-12.3 0-22.3-10-22.3-22.3v-32.2c0-12.3 10-22.3 22.3-22.3h716c12.3 0 22.3 10 22.3 22.3v32.2c0 12.3-10 22.3-22.3 22.3z m-712.2-26.2h708.3V753H148.2v24.5z" fill="#E22B60" p-id="1903"></path><path d="M792 499.8H199.9c-3.3 0-6.5-0.9-9.3-2.6L80.7 431.3c-7.1-4.2-10.4-12.4-8.1-20.4 2.2-8 9.2-13.3 17.5-13.3h64.1L250 277.8c3.5-4.3 8.6-6.8 14.2-6.8h463.9c5.1 0 10 2.2 13.5 6 0.2 0.2 0.3 0.4 0.5 0.6l26.1 32.7c4.5 5.7 3.6 13.9-2.1 18.4-5.7 4.5-13.9 3.6-18.4-2.1l-23.5-29.5H268.1L172.2 417c-3.5 4.3-8.6 6.8-14.2 6.8h-39l83 49.8h587.8l95.1-49.8h-51.1c-5.1 0-10-2.2-13.5-6-0.2-0.2-0.3-0.4-0.5-0.6l-16-20.2c-4.5-5.7-3.6-13.9 2.1-18.4 5.7-4.5 13.9-3.6 18.4 2.1l13.5 16.9h80c7.8 0 14.7 5 17.2 12.4s-0.1 15.6-6.3 20.3c-0.6 0.4-1.2 0.8-1.8 1.1l-125.2 65.5c-2.9 1.9-6.3 2.9-9.7 2.9z m-4.8-24.6z" fill="#E22B60" p-id="1904"></path><path d="M806.8 753H185.4V473.6h621.4V753z m-595.2-26.1h569V499.8h-569v227.1z" fill="#E22B60" p-id="1905"></path><path d="M806.8 753H185.4V473.6h621.4V753z m-595.2-26.1h569V499.8h-569v227.1zM489.7 445.8c-5.4 0-9.8-4.4-9.8-9.8V322c0-5.4 4.4-9.8 9.8-9.8s9.8 4.4 9.8 9.8v114c0.1 5.4-4.3 9.8-9.8 9.8zM375.8 445.8c-0.7 0-1.4-0.1-2.1-0.2-5.3-1.2-8.6-6.4-7.5-11.7l25.3-114c1.2-5.3 6.4-8.6 11.7-7.5 5.3 1.2 8.6 6.4 7.5 11.7l-25.3 114c-1.1 4.6-5.1 7.7-9.6 7.7zM259.2 440.1c-1.5 0-2.9-0.3-4.3-1-4.9-2.4-6.9-8.3-4.5-13.1l53.2-108.3c2.4-4.9 8.3-6.9 13.1-4.5 4.9 2.4 6.9 8.3 4.5 13.1L268 434.6c-1.6 3.5-5.1 5.5-8.8 5.5zM613.8 445.8c-4.5 0-8.6-3.1-9.6-7.7l-25.3-114c-1.2-5.3 2.2-10.5 7.5-11.7 5.3-1.2 10.5 2.2 11.7 7.5l25.3 114c1.2 5.3-2.2 10.5-7.5 11.7-0.7 0.2-1.4 0.2-2.1 0.2zM730.4 440.1c-3.6 0-7.1-2-8.8-5.5l-53.2-108.3c-2.4-4.9-0.4-10.8 4.5-13.1 4.9-2.4 10.8-0.4 13.1 4.5L739.2 426c2.4 4.9 0.4 10.8-4.5 13.1-1.4 0.7-2.9 1-4.3 1z" fill="#E22B60" p-id="1906"></path><path d="M347.9 661.1h-83.6c-6.8 0-12.3-5.5-12.3-12.3v-54.5c0-29.8 24.3-54.1 54.1-54.1s54.1 24.3 54.1 54.1v54.5c0 6.8-5.5 12.3-12.3 12.3z m-76.4-19.6h69.1v-47.2c0-19.1-15.5-34.6-34.6-34.6s-34.6 15.5-34.6 34.6v47.2zM727.8 661.1h-83.6c-6.8 0-12.3-5.5-12.3-12.3v-54.5c0-29.8 24.3-54.1 54.1-54.1s54.1 24.3 54.1 54.1v54.5c0 6.8-5.5 12.3-12.3 12.3z m-76.3-19.6h69.1v-47.2c0-19.1-15.5-34.6-34.6-34.6s-34.6 15.5-34.6 34.6v47.2zM562.9 749.8H429.3v-92.1c0-36.8 30-66.8 66.8-66.8s66.8 30 66.8 66.8v92.1z m-114-19.7h94.3v-72.5c0-26-21.2-47.2-47.2-47.2s-47.2 21.2-47.2 47.2v72.5zM378.9 486.7h19V740h-19zM594.2 486.7h19V740h-19zM785.4 369.1c-3.6 0-7.2-1.5-9.7-4.3l-1-1.1c-4.8-5.4-4.4-13.7 1-18.5 5.4-4.8 13.7-4.4 18.5 1l1 1.1c4.8 5.4 4.4 13.7-1 18.5-2.5 2.2-5.6 3.3-8.8 3.3z" fill="#E22B60" p-id="1907"></path></svg>