<svg t="1578550247400" class="icon" viewBox="0 0 1024 1024" version="1.1" xmlns="http://www.w3.org/2000/svg" p-id="2229" width="200" height="200"><path d="M921.6 495.616 778.24 352.256 778.24 151.552c0-12.288-8.192-20.48-20.48-20.48l-114.688 0c-12.288 0-20.48 8.192-20.48 20.48l0 49.152-98.304-98.304c-4.096-4.096-8.192-4.096-12.288-4.096s-8.192 4.096-12.288 4.096l-397.312 397.312c-4.096 4.096-4.096 8.192-4.096 12.288 0 12.288 8.192 20.48 20.48 20.48 4.096 0 8.192-4.096 12.288-4.096l81.92-81.92 0 462.848c0 12.288 8.192 20.48 20.48 20.48l188.416 0 188.416 0 188.416 0c12.288 0 20.48-8.192 20.48-20.48L819.2 442.368l81.92 81.92c4.096 4.096 8.192 4.096 12.288 4.096 12.288 0 20.48-8.192 20.48-20.48C925.696 503.808 925.696 499.712 921.6 495.616zM663.552 172.032 737.28 172.032l0 143.36-73.728-73.728L663.552 172.032zM401.408 888.832 401.408 888.832 249.856 888.832l0-36.864 151.552 0L401.408 888.832zM585.728 888.832l-151.552 0 0-303.104 151.552 0L585.728 888.832zM774.144 888.832l-151.552 0 0-36.864 151.552 0L774.144 888.832zM774.144 811.008l-151.552 0 0-245.76c0-12.288-8.192-20.48-20.48-20.48l-188.416 0c-12.288 0-20.48 8.192-20.48 20.48l0 245.76L249.856 811.008 249.856 405.504l262.144-262.144 262.144 262.144L774.144 811.008z" p-id="2230"></path><path d="M532.48 757.76m-20.48 0a0.5 0.5 0 1 0 40.96 0 0.5 0.5 0 1 0-40.96 0Z" p-id="2231"></path></svg>